PathFileType	4	(X/Y/Z)	s06c0103.trc
DataRate	CameraRate	NumFrames	NumMarkers	Units	OrigDataRate	OrigDataStartFrame	OrigNumFrames
200	200	6	48	mm	200	750	2000
Frame#	Time	racr			lacr			c7			jug			rlel			rdr			llel			ldr			s2			lic			ric			lasi			rasi			rpsi			lpsi			rgt			lgt			rth1			rth2			rth3			rth4			rlfc			rmfc			rsh1			rsh2			rsh3			rsh4			rlmal			rcal			rtoe			rmt5			lth1			lth2			lth4			lth3			llfc			lmfc			llmal			lcal			lmt5			lsh1			lsh2			lsh3			lsh4			ltoe			SBIKE			LBIKE			RBIKE			
		X1	Y1	Z1	X2	Y2	Z2	X3	Y3	Z3	X4	Y4	Z4	X5	Y5	Z5	X6	Y6	Z6	X7	Y7	Z7	X8	Y8	Z8	X9	Y9	Z9	X10	Y10	Z10	X11	Y11	Z11	X12	Y12	Z12	X13	Y13	Z13	X14	Y14	Z14	X15	Y15	Z15	X16	Y16	Z16	X17	Y17	Z17	X18	Y18	Z18	X19	Y19	Z19	X20	Y20	Z20	X21	Y21	Z21	X22	Y22	Z22	X23	Y23	Z23	X24	Y24	Z24	X25	Y25	Z25	X26	Y26	Z26	X27	Y27	Z27	X28	Y28	Z28	X29	Y29	Z29	X30	Y30	Z30	X31	Y31	Z31	X32	Y32	Z32	X33	Y33	Z33	X34	Y34	Z34	X35	Y35	Z35	X36	Y36	Z36	X37	Y37	Z37	X38	Y38	Z38	X39	Y39	Z39	X40	Y40	Z40	X41	Y41	Z41	X42	Y42	Z42	X43	Y43	Z43	X44	Y44	Z44	X45	Y45	Z45	X46	Y46	Z46	X47	Y47	Z47	X48	Y48	Z48	
750	3.7500	498.932993	1322.442269	-56.759306	503.892789	1311.078788	-355.153405	488.724330	1387.101881	-206.563048	496.171748	1224.982639	-200.172568	550.075688	1079.298992	50.797974	722.392572	916.255528	-35.464512	477.583776	1041.479744	-433.081333	700.802354	937.176543	-398.235872	-51.345149	1172.327103	-184.136007	108.632829	1153.273438	-355.838787	105.137156	1115.817088	-28.141136	121.025012	1101.963481	-323.138650	128.029187	1076.081084	-69.669387	-16.326224	1200.870870	-147.606930	-20.298937	1212.192931	-206.170529	60.475707	1022.272632	-9.943903	78.073882	1118.581418	-385.809602	143.702162	917.362994	-8.812379	209.308804	855.913322	-18.621935	233.617049	772.509661	-29.261671	237.327167	876.970668	-33.732488	257.751691	671.865155	-48.287667	243.395658	654.245461	-160.503755	196.509666	565.835292	-25.386940	168.200843	485.875829	-48.128749	105.786805	424.973699	-51.285451	188.956623	477.737037	-82.196902	52.152314	363.800318	-58.011273	-10.050124	379.642653	-107.963153	175.890157	174.477538	-88.924133	88.740575	230.684240	-27.453600	143.305919	1024.981929	-410.207450	226.249263	997.730572	-406.491604	245.379015	1025.851887	-390.571088	285.967240	930.982770	-408.706999	354.906227	832.830078	-383.423881	365.919016	812.349617	-267.748133	232.096589	473.489893	-373.373134	162.834229	431.802421	-324.761661	356.846269	427.040566	-404.840484	327.187496	724.720225	-403.926204	318.405266	639.888706	-384.643279	269.305491	566.087360	-384.094594	343.344263	635.573430	-354.499530	442.329404	448.074722	-348.082987	-203.921103	865.425836	-210.867143	-50.523509	80.339446	-411.022492	-50.498093	80.291834	-13.373482	
751	3.7550	497.607161	1321.852622	-56.329600	503.531777	1311.131931	-353.830287	488.506718	1386.665697	-205.179679	494.441053	1224.689859	-200.069981	549.714887	1079.135604	51.539117	722.223471	916.224014	-35.323993	478.745026	1042.268710	-433.024144	700.590205	937.152162	-398.252534	-52.209811	1170.733009	-184.772432	108.645797	1150.549358	-356.106003	103.884242	1115.280880	-27.741770	121.491115	1099.762606	-322.494023	127.457826	1074.985431	-69.392005	-17.369882	1199.392090	-148.343244	-21.029118	1210.441774	-207.142059	60.487111	1022.700590	-8.682102	78.036534	1114.085893	-386.561730	145.492146	919.209886	-8.095593	212.870029	858.879683	-18.194726	238.733900	776.247493	-27.932142	240.250173	880.543942	-33.429909	263.341806	675.372947	-47.012330	249.073583	657.756629	-158.696168	199.551037	570.774790	-24.566475	168.918748	491.779728	-47.707513	104.920056	432.561712	-50.979607	189.364155	483.225372	-81.803573	49.267897	373.391449	-57.776205	-12.729451	390.530774	-107.470652	170.032920	182.304766	-88.939048	83.793048	239.737105	-27.403371	143.395312	1019.437227	-410.257720	225.719540	990.523917	-405.838050	245.326951	1018.381750	-390.052751	284.159936	922.747002	-407.523284	350.630962	822.591692	-382.613221	360.708938	801.171875	-269.753883	235.980321	461.648078	-372.936817	167.120348	418.973295	-324.088147	361.556363	417.184039	-404.455514	325.227577	713.979353	-402.760330	318.497583	629.017353	-383.605180	271.260481	554.258611	-383.137851	343.546699	625.176387	-353.080157	446.785925	439.698675	-348.073735	-203.871109	865.460040	-210.796443	-50.527522	80.324846	-411.026435	-50.419381	80.061691	-13.533392	
752	3.7600	496.330439	1320.905033	-56.053065	503.175297	1310.953814	-352.785514	488.190360	1386.203607	-203.976054	492.793252	1224.388454	-200.465608	549.209602	1078.889834	52.010085	722.121741	916.193574	-35.213436	479.823459	1042.762479	-432.576291	700.381514	937.204035	-398.280550	-52.991644	1168.949369	-185.432647	108.570376	1147.764287	-356.436360	101.693150	1114.465488	-28.267570	122.007440	1097.594786	-321.865801	126.944946	1073.778210	-69.154873	-18.316807	1197.920225	-149.070588	-21.770657	1208.557441	-208.126887	60.615354	1022.930047	-7.619068	77.955649	1109.385047	-387.245860	147.514344	921.053559	-7.370166	216.245426	862.329720	-17.362865	244.616743	780.048566	-26.329748	242.948465	884.569643	-32.987595	268.491266	679.365072	-45.863879	254.600394	661.299409	-157.113306	202.913552	575.861640	-23.662924	170.054905	497.913665	-47.099817	104.407226	440.523746	-50.633297	190.080265	489.106252	-81.444509	47.007195	383.185906	-57.539169	-15.292022	401.236722	-108.063544	164.756920	190.474199	-88.884756	79.364770	249.168913	-27.328624	143.520600	1013.774187	-410.442816	225.205701	983.240196	-405.277223	245.276248	1010.742829	-389.489190	282.225023	914.253915	-406.332153	346.394511	812.124076	-381.888923	356.289204	790.676458	-269.426985	239.690330	449.890815	-372.556298	171.561302	406.485618	-323.582530	365.916944	407.498152	-404.476304	323.074591	703.229812	-401.832571	318.329339	618.105188	-382.653178	272.790359	542.167799	-381.614622	343.490717	614.850263	-352.082579	450.850684	430.678517	-347.939743	-203.849878	865.468720	-210.631928	-50.540422	80.314400	-411.022422	-50.429155	80.020872	-13.517454	
753	3.7650	495.176831	1320.495198	-55.296933	502.833285	1310.573908	-351.958977	487.700605	1385.719097	-202.998843	491.590723	1224.111501	-200.326965	548.594681	1078.585362	52.210758	722.067227	916.123132	-35.112227	480.699553	1042.966677	-432.008215	700.105080	937.490507	-398.473838	-53.863971	1167.111363	-186.383316	108.462144	1145.011845	-356.789780	101.002651	1113.388929	-28.093203	122.574348	1095.515500	-321.261043	126.212560	1072.647727	-69.194496	-19.079737	1196.323769	-149.779657	-22.362096	1206.613382	-209.101885	60.827075	1023.085881	-6.720704	77.768544	1104.548376	-387.898315	149.776774	923.181157	-6.652776	219.596994	865.616927	-16.441325	249.786957	784.202674	-24.733351	245.751668	888.485265	-32.453818	274.331320	683.582621	-44.475331	260.163983	665.080361	-155.379605	206.609345	581.304360	-22.626428	171.529522	504.440894	-46.568891	104.623345	448.445188	-50.134430	191.324664	495.465065	-80.477471	45.384757	393.416832	-57.199419	-16.208563	412.304246	-108.197343	160.077468	199.054743	-88.873632	75.586329	258.890333	-27.247098	143.686336	1008.040409	-410.695731	224.637045	975.716052	-404.723843	245.225031	1002.913233	-389.034520	280.017417	905.678103	-405.490137	341.967940	801.644851	-381.342582	351.580589	780.410334	-269.074851	243.157514	438.271063	-372.281173	175.511261	394.284125	-323.319286	369.880635	397.263881	-404.291502	320.677110	692.402801	-401.164906	318.004277	607.187261	-381.832976	274.044143	530.201144	-380.552216	343.118623	604.853728	-351.560883	454.656436	420.959244	-347.763427	-203.843505	865.425099	-210.419115	-50.540485	80.325928	-410.998629	-50.422431	79.996151	-13.490505	
754	3.7700	493.942378	1320.029407	-54.709210	502.424774	1309.860151	-350.519525	486.994655	1385.184440	-202.277179	490.467071	1223.793202	-200.428998	547.992887	1078.263562	52.085896	722.008374	916.016489	-35.025573	481.453327	1042.795499	-431.142230	700.050324	938.071677	-399.174579	-54.399542	1165.238846	-186.908866	108.516445	1142.228301	-357.520988	100.148587	1112.440524	-28.233670	123.372942	1093.428629	-321.079590	125.600952	1071.978513	-69.088477	-19.811323	1194.743686	-150.419003	-22.926960	1204.581376	-210.042392	61.316942	1023.149199	-5.841341	77.520197	1099.721071	-388.609009	152.032114	925.271109	-5.335868	223.056014	869.184596	-15.729891	254.256384	788.475725	-23.294783	247.614787	891.861575	-32.498203	280.006301	688.197712	-43.193270	265.767550	669.433257	-153.647564	210.952198	586.821765	-21.558342	173.391337	511.411937	-45.701920	105.094496	456.959567	-49.709044	192.849298	501.701317	-80.016961	44.221247	403.851135	-56.923384	-16.949863	423.782001	-107.833495	156.051019	207.906951	-88.883361	72.450058	268.975052	-27.134788	143.761224	1002.042038	-410.901748	223.880205	967.970552	-404.277251	245.066439	994.843495	-388.759867	277.596615	896.704378	-404.358683	337.591009	791.195972	-380.801850	346.673709	770.327466	-268.651465	246.560696	426.483653	-371.584017	178.948812	382.428584	-323.147171	373.272289	386.739000	-404.078378	317.955730	681.756494	-400.621762	317.227132	596.700359	-381.597872	274.997159	518.628564	-379.737748	342.572096	594.805856	-351.128222	457.988345	410.955647	-347.613531	-203.813307	865.378532	-210.228541	-50.532781	80.332627	-410.942475	-50.387569	79.935376	-13.465806	
755	3.7750	492.730515	1319.690349	-54.173132	502.130795	1308.997564	-350.102463	486.206157	1384.553251	-201.838189	489.615963	1223.388480	-200.530756	547.248223	1077.778732	51.586690	721.900123	915.922521	-34.981851	481.854422	1042.171452	-430.288580	699.959659	938.110645	-399.069552	-54.867963	1163.256024	-187.456290	108.351398	1139.692467	-357.963393	99.539769	1111.413042	-28.466544	123.801091	1090.968098	-322.624589	125.078916	1071.400361	-69.349790	-20.539392	1193.112491	-151.122456	-23.448037	1202.507556	-210.962933	61.885030	1023.243360	-5.122763	77.197967	1095.053183	-389.361118	154.020452	927.493044	-5.266703	226.484743	872.976351	-14.492234	259.337426	792.904872	-21.492875	250.531436	895.998900	-31.520033	286.006769	693.173284	-41.808397	271.350181	674.353063	-151.757661	215.204427	592.726770	-20.521205	176.266441	518.559688	-44.670598	105.996613	465.683354	-49.229763	194.699633	508.552429	-79.537021	43.642930	414.410384	-56.615972	-16.934511	435.174818	-107.144360	152.743306	216.997039	-88.869750	69.948273	279.154432	-26.988925	143.715637	995.968136	-411.043175	222.907286	960.008805	-403.952794	244.757998	986.440438	-388.689764	274.779515	887.443065	-403.416484	333.362308	780.937606	-380.639243	341.125233	759.837849	-268.650687	249.192127	415.020609	-371.461734	181.805364	370.882198	-323.028176	376.084182	376.111793	-403.838284	314.828629	671.277148	-400.224990	316.078554	586.359840	-381.278865	275.821190	507.275297	-379.414405	341.738931	584.944104	-350.957936	460.672249	400.554891	-347.399299	-203.776862	865.353130	-210.059894	-50.523059	80.317950	-410.870068	-50.388270	79.904990	-13.432418	
